<!-- <svg width="1077" height="990" viewBox="0 0 1077 990" fill="none" xmlns="http://www.w3.org/2000/svg"> -->
<!-- <path d="M909.079 176.687C486.468 1429.32 94.8519 797.145 -245.666 989.191L-273.518 122.311C-98.0847 109.104 255.784 81.3405 267.79 75.9479C282.798 69.2072 1153.31 -485.661 1071.51 -140.889C1022.28 -26.4819 1001.45 -97.0987 909.079 176.687Z" fill="url(#paint0_linear_228_76)" fill-opacity="1" /> -->
<!-- <defs> -->
<!-- <linearGradient id="paint0_linear_228_76" x1="588.47" y1="791.265" x2="238.137" y2="497.91" gradientUnits="userSpaceOnUse"> -->
<!-- <stop stop-color="#FF4400"/> -->
<!-- <stop offset="1" stop-color="#111" /> -->
<!-- </linearGradient> -->
<!-- </defs> -->
<!-- </svg> -->
<svg width="1056" height="855" viewBox="0 0 1056 855" fill="none" xmlns="http://www.w3.org/2000/svg">
<path d="M888.078 42.3027C465.467 1294.94 73.851 662.761 -266.667 854.807L-294.519 -12.0732C-119.086 -25.2807 234.783 -53.0438 246.789 -58.4364C261.797 -65.1771 1132.31 -620.045 1050.51 -275.273C1001.28 -160.866 980.447 -231.483 888.078 42.3027Z" fill="url(#paint0_radial_228_76)"/>
<defs>
<radialGradient id="paint0_radial_228_76" cx="0" cy="0" r="1" gradientUnits="userSpaceOnUse" gradientTransform="translate(666.999 571.116) rotate(-129.513) scale(513.947 862.777)">
<stop stop-color="#FF4400"/>
<stop offset="1" stop-color="#111111"/>
</radialGradient>
</defs>
</svg>

