<!-- <svg width="2402" height="275" viewBox="0 0 2402 275" fill="none" xmlns="http://www.w3.org/2000/svg"> -->
<!-- <path d="M305.668 155.376C1150.52 -387.169 3270.85 708.01 2011.14 262.274L1847.48 804.627C1613.84 721.267 1142.31 553.804 1125.29 550.832C1104 547.117 -168.361 431.431 18.8067 264.119C109.949 220.108 121.011 273.958 305.668 155.376Z" fill="url(#paint0_linear_228_78)" fill-opacity="0.66"/> -->
<!-- <defs> -->
<!-- <linearGradient id="paint0_linear_228_78" x1="869.047" y1="-51.7999" x2="921.583" y2="353.448" gradientUnits="userSpaceOnUse"> -->
<!-- <stop stop-color="#44BBCC"/> -->
<!-- <stop offset="1" stop-color="#44BBCC" stop-opacity="0.12"/> -->
<!-- </linearGradient> -->
<!-- </defs> -->
<!-- </svg> -->

<svg width="2402" height="275" viewBox="0 0 2402 275" fill="none" xmlns="http://www.w3.org/2000/svg">
<path d="M305.668 155.376C1150.52 -387.169 3270.85 708.01 2011.14 262.274L1847.48 804.627C1613.84 721.267 1142.31 553.804 1125.29 550.832C1104 547.117 -168.361 431.431 18.8067 264.119C109.949 220.108 121.011 273.958 305.668 155.376Z" fill="url(#paint0_radial_228_78)"/>
<defs>
<radialGradient id="paint0_radial_228_78" cx="0" cy="0" r="1" gradientUnits="userSpaceOnUse" gradientTransform="translate(883.5 -66) rotate(93.0267) scale(757.557 879.417)">
<stop stop-color="#44BBCC"/>
<stop offset="1" stop-color="#111111"/>
</radialGradient>
</defs>
</svg>

